<?xml version="1.0" encoding="UTF-8"?>
<!DOCTYPE svg  PUBLIC '-//W3C//DTD SVG 20010904//EN'  'http://www.w3.org/TR/2001/REC-SVG-20010904/DTD/svg10.dtd'>
<svg width="688pt" height="688pt" version="1.0" viewBox="0 0 688 688" xmlns="http://www.w3.org/2000/svg">
 <g transform="translate(0 688) scale(.1 -.1)">
  <path d="m2668 6758c-28-37-68-112-68-127 0-6 15-3 35 6 41 20 61 8 25-16-56-37-80-64-86-97-9-47-1-51 36-20 33 27 45 31 54 18 3-5-15-25-39-46-37-30-45-43-45-71 0-35 14-54 25-35 3 6 25 20 47 31 62 32 66 8 5-31-43-29-52-40-52-64 0-16 5-31 12-33 6-2 38 22 70 54 68 67 93 128 93 228 0 79-53 235-79 235-5 0-20-15-33-32z"/>
  <path d="m2394 6745c37-88 135-190 159-166 6 6 8 11 4 11s2 22 13 49l19 48-27 26c-39 36-106 67-147 67h-35l14-35z"/>
  <path d="m2770 6741c0-15 10-19 58-24 75-8 154-32 184-56 38-32 12-36-51-7-39 17-76 26-110 26-50 0-51-1-51-29 0-25 5-30 33-36 90-17 124-28 147-45 38-29 16-35-39-11-27 11-68 21-90 21-40 0-41-1-41-35s1-34 50-41c34-4 50-11 50-21 0-12-10-14-50-8-43 6-51 4-56-12-3-10-14-38-25-62s-18-45-16-48c3-2 76 27 163 65 252 110 284 125 284 134 0 31-114 133-190 170-46 22-128 38-195 38-47 0-55-3-55-19z"/>
  <path d="m3420 6690c-8-15-3-33 26-87 33-62 180-311 229-388 11-18 33-54 50-81 38-64 160-237 202-290 25-32 42-43 68-46 19-2 35 0 35 5 0 4-33 54-73 110-64 89-185 270-252 377-12 19-30 49-41 65-10 17-47 77-81 135-141 238-142 239-163 200z"/>
  <path d="m3503 6688c3-9 45-83 93-163 49-80 98-160 108-178 44-72 273-416 314-470 25-32 48-55 52-50 4 4 10 28 12 53 4 43 1 50-92 180-106 148-267 391-389 586-27 44-37 53-67 56-30 4-35 1-31-14z"/>
  <path d="m5102 6638c64-254 83-467 54-601-10-42-31-103-47-134l-29-58 27-22c33-27 43-21 79 53 80 164 70 466-24 736-28 79-40 98-61 98-17 0-17-3 1-72z"/>
  <path d="m5015 6690c-4-6 0-41 8-78 55-241 56-503 2-713-5-19-2-28 8-32 35-13 80 89 97 220 19 140-5 357-60 548-17 58-39 80-55 55z"/>
  <path d="m3631 6658c12-25 23-43 174-273 57-88 112-171 122-184s29-40 43-61c50-76 125-179 130-180 3 0 12 13 21 28 18 31 29 12-201 342-18 25-69 104-115 175-117 182-111 175-151 175-33 0-34-1-23-22z"/>
  <path d="m4953 6663c-17-6-16-39 2-138 18-98 20-469 4-563-8-47-8-67 0-75 36-36 61 79 66 298 4 175-1 252-28 404-13 73-19 84-44 74z"/>
  <path d="m5180 6655c0-3 10-36 21-72 55-170 67-248 65-428-3-154-5-176-28-237-14-37-38-84-53-104-23-30-26-39-16-60 14-31 19-30 77 9 51 34 106 112 124 177 17 60 12 229-10 333-19 91-75 271-98 313-16 29-82 85-82 69z"/>
  <path d="m3750 6646c0-5 120-190 179-276 21-30 62-91 92-135s70-100 88-125 36-51 41-59c6-12 12-11 33 5l25 20-31 45c-17 24-62 89-99 144s-73 107-78 115c-6 8-46 70-90 136-77 118-93 133-142 134-10 0-18-2-18-4z"/>
  <path d="m4873 6612c-21-16-22-21-13-77 6-33 13-189 17-347 6-266 8-288 24-288s26 25 28 70c14 318 8 552-15 638-8 26-12 27-41 4z"/>
  <path d="m3900 6598c0-7 9-24 20-38s20-28 20-31c0-5 141-217 257-386 36-54 47-61 58-43 3 6 15 10 26 10 10 0 19 2 19 4 0 3-39 61-87 129-49 68-119 171-157 229-56 84-77 108-108 121-46 20-48 21-48 5z"/>
  <path d="m3406 6551c-7-48 11-93 103-251 30-52 61-107 68-121 23-45 199-305 239-353 32-38 42-44 63-39 41 9 42 16 7 60-82 104-412 624-430 679-3 10-15 30-25 43l-18 24-7-42z"/>
  <path d="m4794 6552c-21-17-21-19-8-157 7-77 13-223 14-324 0-163 2-182 16-177 9 3 20 6 25 6 21 0 2 637-20 662-3 4-16-1-27-10z"/>
  <path d="m4053 6536c6-15 120-189 175-266 18-25 48-68 68-97 33-49 38-52 67-46 18 3 34 7 36 9s-23 40-55 86c-33 46-90 128-127 184-55 82-75 104-112 122-53 26-59 27-52 8z"/>
  <path d="m2228 6513c-29-7-21-18 49-63 104-68 266-141 280-127 1 2-1 39-5 83-7 78-8 79-42 96-28 14-59 18-150 17-63-1-123-3-132-6z"/>
  <path d="m3170 6493c-30-14-133-59-227-101-95-41-173-79-173-83 0-3 24-9 53-12 28-4 66-9 82-13 30-5 31-4 40 38 6 24 15 41 20 38 11-5 11-8 0-61-6-34-5-36 34-54 23-10 44-15 47-12 4 4 9 43 13 88 4 58 10 84 20 87 12 4 13-13 9-101-5-99 0-127 23-127 12 0 22 53 28 150 5 80 9 95 24 98 14 3 17-4 17-35 0-45-20-174-34-221-5-18 39-59 47-45 3 5 14 42 26 84 16 56 21 104 21 187 0 61-3 113-7 115-5 2-33-7-63-20z"/>
  <path d="m5336 6478c19-52 54-183 59-221 28-197 28-196 3-312-21-96-74-173-153-219-33-20-42-30-38-45 8-31 29-32 75-1 162 107 215 284 173 577-8 56-21 118-29 138-16 39-83 125-97 125-4 0-1-19 7-42z"/>
  <path d="m4692 6461-39-43 13-73c7-41 15-162 18-270 2-108 7-199 10-202s20-2 38 3l33 10v209c0 210-10 367-25 395-7 11-17 5-48-29z"/>
  <path d="m1972 6445c-82-41-148-85-240-160l-32-27-22 51c-11 28-24 51-28 51-14 0-96-104-131-165-19-33-47-88-62-122-26-59-27-63-12-100 27-69 55-222 55-298 0-41 3-75 8-75 4 1 23 15 43 33l36 32-10 115c-11 126 1 351 18 357 8 2 11-61 10-194 0-109 4-211 8-227 7-26 9-27 26-12 28 25 40 20 74-35l32-52 10 59c9 50 8 67-8 114-30 87-33 190-8 292 22 92 53 169 77 189 25 21 27 1 6-44-51-109-62-157-62-279 0-64 4-119 9-123 6-3 17 21 27 52 62 216 214 542 252 543 18 0 15-21-9-55-62-91-195-401-213-495-3-14-8-40-12-57-9-44 3-42 57 10 80 77 117 147 159 305 16 61 34 55 26-9-20-146-115-300-227-367-35-21-36-24-43-98-8-102-8-154 2-154 4 0 46 39 93 88 80 81 126 140 194 251 18 29 30 40 37 33 22-22-107-205-235-331l-85-84 5-101c6-121 10-140 25-111 43 81 116 175 203 261 56 56 111 107 123 113 19 10 23 8 37-20 9-17 19-28 22-26 6 7 52 199 58 244 3 18 10 54 16 80 5 27 14 76 18 111 9 72 16 69-104 47-44-8-83-15-87-15s-6 42-5 93c1 50 1 152 0 225-3 157 2 154-131 87z"/>
  <path d="m4220 6462c0-11 175-268 217-318 21-25 63-41 63-24 0 20-111 210-159 272-12 14-42 38-67 52-51 29-54 30-54 18z"/>
  <path d="m3409 6405c-8-81 28-228 87-350 55-114 102-177 161-218 26-18 62-45 80-61 30-25 37-27 59-17l26 12-26 32c-74 93-336 498-336 520 0 11-50 91-51 82z"/>
  <path d="m4586 6336c-36-44-36-45-22-83 21-57 44-134 51-175 7-37 30-67 42-55 3 4 0 68-7 144-6 76-13 153-14 171-2 18-5 35-8 37-3 3-22-15-42-39z"/>
  <path d="m4414 6338c8-13 44-75 79-138 86-153 109-157 60-10-8 25-16 50-17 55-8 36-21 54-64 83-57 39-82 43-58 10z"/>
  <path d="m2448 6202c-100-80-108-90-108-122-1-19-5-54-9-77-9-46-2-54 20-26 21 25 127 91 158 98 36 8 121 93 103 103-6 5-19 32-27 60-9 29-19 52-23 52s-55-40-114-88z"/>
  <path d="m2695 6263c-36-8-75-25-75-34 0-4 10-20 23-35l24-27 31 19c18 10 32 22 32 26s7 8 15 8c26 0 16-30-15-48-37-21-38-36-2-51 26-11 34-9 83 23 29 20 59 36 66 36 26 0 12-21-32-48-53-31-57-48-14-57 25-6 38-1 76 29 44 35 73 45 73 28 0-5-18-23-41-42-31-25-38-35-28-41 26-16 76-9 123 17 32 18 51 23 57 17 7-7-2-18-26-33-20-12-34-25-31-27 8-8 197-35 203-29 8 8-54 81-115 136-116 103-301 161-427 133z"/>
  <path d="m5495 6164c14-216-31-362-141-463-31-29-72-58-90-66-28-12-34-19-34-44 0-37 15-39 68-12 44 23 152 132 177 180 30 60 54 141 70 239l16 96-27 83c-15 46-31 86-36 89-6 4-7-33-3-102z"/>
  <path d="m4321 6090c-49-11-116-47-148-82-32-34-61-107-69-170-6-49-4-57 13-67 25-13 33-6 33 31 0 16 11 53 25 83 84 177 312 210 415 60 33-47 37-65 17-65-7 0-23 18-36 40-30 55-74 83-135 88-79 6-131-12-186-68-47-46-61-75-74-160-6-32-2-38 38-73 36-30 50-36 71-31 24 6 25 10 25 74 0 61 3 71 29 99 74 79 191-8 152-112-15-39-30-25-24 22 3 21 0 47-6 59-13 25-62 37-90 22-28-14-43-76-31-121 10-35 12-36 68-42 31-4 69-9 84-13 24-5 29-2 42 31 9 21 16 53 16 73 0 43-35 118-61 133-17 9-27 39-14 39 30 0 105-95 105-133 0-23 6-22 51 14 37 29 39 34 33 68-10 54-32 103-61 133-54 56-185 88-282 68zm97-148c2-7-4-12-14-12-34 0-100-40-119-72-10-18-22-51-25-73-3-29-10-41-24-43-44-9 13 145 67 181 26 17 86 36 101 33 6-1 12-8 14-14z"/>
  <path d="m1294 5993c-120-151-216-289-256-369-12-24-24-44-27-44-3 1-32 37-64 80-32 44-62 80-67 80-14 0-80-186-94-264-23-131-29-234-18-330 16-129 13-121 66-251 25-60 45-116 46-123 0-8 7-38 15-66l16-53h67c47 0 82-7 119-22l51-23 41 24c34 19 41 28 41 54 0 25-16 46-95 125-52 52-119 116-150 143-71 62-110 119-146 213-34 88-43 129-29 138 11 7 40-52 40-80 0-50 135-263 155-243 3 3-5 28-18 55-48 95-104 298-127 460-14 99-13 123 5 123 11 0 15-11 15-37 0-21 7-69 15-108 8-38 18-90 21-114 13-97 119-381 142-381 17 0-8 174-48 345-26 108-27 117-14 122 10 3 38-73 49-134 3-17 11-58 19-90s20-112 26-178 13-130 16-141c4-21 89-124 102-124 4 0 6 91 4 202-3 188-5 207-27 263-55 136-69 274-39 408 20 94 33 127 50 127 18 0 18-3-7-80-34-108-20-380 21-423 7-8 17 52 19 118 2 65 49 367 75 479 13 55 36 74 36 31 0-15-7-53-15-84s-17-79-20-106c-4-28-10-68-16-90-5-22-13-85-19-140-5-55-12-127-15-160-6-55-5-58 9-41 13 16 53 122 60 159 1 7 10 46 19 87 8 41 19 109 24 150 6 56 12 75 23 75 38 0-18-301-87-462-20-46-42-88-49-94-11-9-14-52-14-203 0-105 4-197 9-205 12-18 37-3 88 51l40 44 6 115c6 110 26 215 69 346 11 35 23 65 28 68 18 11 21-18 6-63-26-78-45-145-51-177-31-172-36-208-27-217 27-27 184 338 206 480 3 18 23 35 29 25 8-13-45-223-62-248-4-5-16-32-26-60-10-27-33-81-52-119-19-37-32-71-28-74 17-17 179 190 214 276 7 17 20 32 27 32 19 0 18-14-7-63-59-115-166-244-248-296-25-17-83-66-128-110-77-75-82-82-76-114 5-34 6-34 67-40l61-6 58 57c33 31 79 83 103 115 40 50 74 73 74 49 0-12-105-138-162-193l-49-48 30-41c16-23 31-45 33-50s35-19 73-31l71-21 47 47 47 48v134c0 90 5 155 16 195 8 34 17 77 20 97 2 20 9 63 15 96 15 81 15 266 0 340-7 33-14 70-17 83-8 40-66 162-77 162-12 0-62-37-139-103l-58-49v94c0 94-16 207-44 308-22 83-47 150-55 150-4 0-39-39-77-87z"/>
  <path d="m2505 6040c-3-5-13-10-21-10-27 0-123-79-148-123-14-23-32-73-41-112-15-63-59-236-71-275-2-8 0-21 5-29 7-12 23-4 76 40 77 62 108 112 97 155-18 67 3 264 28 264 13 0 13-39 0-115-9-58-5-125 9-125 3 0 26 30 51 67 76 112 122 165 133 154 6-6-12-38-53-92-34-46-57-85-51-87 12-4 61 28 104 67 19 17 30 22 38 14 15-15-61-79-136-113-33-16-66-38-73-49-17-28-2-26 56 8 27 16 92 49 144 74 108 52 100 38 114 206l7 83-34-7c-19-4-71-22-116-40l-82-32-7 43c-6 43-16 54-29 34z"/>
  <path d="m2865 6020c-8-12 155-180 174-180 11 0 12 14 7 67-8 77-18 93-56 93-15 0-47 7-70 15-51 18-47 18-55 5z"/>
  <path d="m5988 6002c-9-4-29-29-43-56-23-43-157-232-175-246-14-11-92-151-88-156 12-11 38 14 123 117 115 140 158 200 195 271 40 77 38 90-12 70z"/>
  <path d="m5890 5967c-80-38-99-60-164-192-68-136-100-218-93-238 2-7 15 11 29 38 33 68 69 123 142 219 63 83 126 174 126 182 0 6-12 4-40-9z"/>
  <path d="m6030 5923c-37-70-85-137-177-246-46-54-83-102-83-108 0-18 55 3 88 35 38 36 147 196 186 273 44 88 31 131-14 46z"/>
  <path d="m5560 5920c0-28 1-23-25-91-14-34-35-80-49-103-34-58-146-163-200-187-42-18-46-23-46-54 0-32 1-33 28-25 88 26 211 130 254 215 14 28 33 74 42 104 18 61 22 161 6 161-5 0-10-9-10-20z"/>
  <path d="m6041 5809c-54-91-105-163-145-206-33-37-32-40 11-49 26-5 34-1 56 28 14 18 51 81 82 141 47 90 55 112 48 134-9 25-11 23-52-48z"/>
  <path d="m4750 5850c-72-26-128-66-162-115-35-52-43-84-24-103 12-13 16-11 31 18 75 144 273 216 412 149 54-26 123-85 123-105 0-23-20-16-46 15-30 36-113 78-171 87-96 15-239-59-288-149-17-32-17-39-5-61 7-15 16-26 19-26s14 18 24 39c50 109 180 174 283 141 111-36 152-115 129-250-11-63-84-136-146-145-63-9-133 5-137 29-3 16 0 18 19 12 45-13 98-18 123-12 47 12 95 64 112 122 37 127-30 218-160 218-37 0-73-7-92-17-43-22-102-93-115-137-10-32-8-43 15-88 14-29 26-55 25-59-1-19 14-79 24-91 22-27 112-64 167-69 117-11 236 54 281 152 38 84 16 236-48 332-31 47-50 63-106 91-89 45-202 54-287 22zm192-200c9 0 30-12 47-26 39-32 42-85 9-134-29-42-73-75-87-65-8 4 5 22 34 50 42 38 46 46 43 81-3 34-8 41-41 58-79 38-167-15-167-101 0-43-14-63-32-45-7 7-7 27 2 62 20 83 86 136 155 124 11-2 28-4 37-4zm213-30c4-6 7-44 7-84 0-86-24-150-74-196-49-45-178-79-178-47 0 8 24 18 65 26 55 11 70 19 104 56 35 38 40 50 46 109 4 36 5 78 2 93-8 42 11 71 28 43zm-220-60c0-10-8-14-27-12-22 3-30-2-37-21-12-32-29-43-37-23-6 15 12 56 30 69 19 13 71 3 71-13z"/>
  <path d="m3550 5842c0-14 127-132 142-132 8 0 23 6 33 14 17 12 13 17-58 70-68 50-117 70-117 48z"/>
  <path d="m3410 5836c0-2 48-48 106-101l105-98 22 21 21 22-79 80c-77 78-81 80-127 80-27 0-48-2-48-4z"/>
  <path d="m3310 5822c0-10 268-277 273-272 1 3 8 17 14 31 11 26 7 31-107 138-98 92-124 111-149 111-17 0-31-3-31-8z"/>
  <path d="m3223 5803c-13-2-23-8-23-13 0-27 341-353 354-339 2 2 6 18 10 34 6 28-3 39-143 178-82 81-155 146-163 146-7-1-23-4-35-6z"/>
  <path d="m5660 5760c-53-75-110-217-110-277 0-48 25-17 47 58 11 41 37 112 57 158s35 86 32 88c-2 2-14-10-26-27z"/>
  <path d="m2775 5773c-46-12-210-95-292-148-89-59-253-192-253-207 0-4-4-8-9-8-4 0-11 20-14 45-7 49-42 125-57 125-18 0-196-185-238-247-65-96-115-202-123-263-4-30-15-86-25-125-11-44-19-125-21-217l-4-148h50c28 0 51 4 51 10 0 5 21 21 46 36 35 20 60 27 106 28l60 1-7 49c-3 29-18 66-35 91-65 95-102 238-98 380 2 74 6 100 16 100s14-28 17-110c3-113 7-148 23-200 16-54 54-135 63-135 5 0 9 93 10 208 0 152 5 230 17 294 18 90 24 104 41 94 6-4 6-18 0-39-10-33-12-50-29-262-11-130-5-309 10-300 13 8 77 210 85 265 13 98 42 220 52 220 7 0 13-4 13-8 0-31-32-211-50-277-12-44-25-93-29-110-5-16-22-61-40-99-29-65-40-116-23-116 4 0 23 22 42 47 19 26 70 76 113 111 110 91 121 116 118 267-1 83 3 145 15 200 9 44 18 87 19 95 8 52 29 110 41 110 17 0 17-1-1-75-32-125-56-355-37-355 4 0 43 73 87 162 112 226 233 438 250 438 8 0 15-3 15-6 0-4-38-72-84-153-100-175-226-424-226-448 0-35 180 170 224 255 18 35 32 46 46 37 11-7-16-50-96-160-47-64-118-136-202-207-18-14-32-33-32-42 0-20 3-20 48 3 35 18 163 51 196 51 11 0 16-9 16-29 0-41 11-91 21-91 15 0 94 156 124 246 30 92 53 119 47 55-6-53-48-158-98-244-25-43-44-81-42-83s42 4 88 13c56 10 91 22 102 35 18 20 57 116 64 158 3 14 9 49 14 79 12 67 13 221 1 239-6 11-26 12-85 7l-76-7 4 53c3 30 8 114 11 187 6 139 7 136-40 125z"/>
  <path d="m3127 5763c-34-33 89-184 248-306 74-57 175-118 185-112 20 12-7 60-59 103-133 111-190 165-256 241s-97 96-118 74z"/>
  <path d="m3851 5749c-106-34-179-86-213-154-80-154-55-332 63-456l33-34 7 48c6 41 4 53-16 83-53 78-70 198-42 295 53 179 323 252 458 123 23-22 30-24 49-14 12 6 20 19 18 28-4 20-97 78-148 92-55 15-139 11-209-11z"/>
  <path d="m6049 5668c-29-51-61-104-73-116l-21-24 23-19c32-25 55-10 72 50 7 25 26 72 42 103 28 58 36 98 19 98-5 0-33-42-62-92z"/>
  <path d="m3862 5670c-69-23-128-80-146-140-21-68-14-185 15-242 12-27 25-48 28-48 4 1 17 17 31 38 24 35 25 39 11 67-20 40-19 122 2 162 38 72 152 122 231 102 77-20 93-21 102-8 10 17-46 63-95 78-54 16-117 13-179-9z"/>
  <path d="m4275 5641c-230-61-300-353-128-533 80-83 248-121 363-83 149 50 226 232 170 401-27 81-100 166-168 196-47 21-187 32-237 19zm177-67c100-26 168-86 171-153 3-43-13-42-28 2-25 73-83 114-173 123-101 11-142 0-204-56-33-29-62-66-72-90-17-43-36-53-36-18 0 34 59 116 106 149 86 59 139 69 236 43zm27-78c37-20 74-62 66-76-4-7-19 0-41 20-19 16-46 33-60 36-47 12-127-1-170-29-38-24-54-26-54-6 0 12 67 50 113 65s105 11 146-10zm-12-77c14-5 21-14 17-23-5-13-11-13-47 0-23 8-53 12-68 9-35-8-70-46-78-86-8-41-31-51-31-14s27 91 54 108c38 26 94 28 153 6zm-9-71c22-19 30-51 19-75s-31-30-42-13c-3 6-1 10 4 10 15 0 14 45-1 57-7 6-26 13-41 17-38 9-23 30 16 22 16-3 37-12 45-18zm93-48c-5-25-23-56-41-75-34-35-115-67-149-58-30 8-20 27 15 31 78 7 126 40 144 100 6 20 14 43 16 51 3 10 8 11 15 4 6-6 7-24 0-53zm79-50c-38-117-153-187-263-161-40 10-117 55-117 69 0 20 15 21 35 2 25-23 97-50 135-50 66 0 161 74 176 137 11 47 24 67 37 54 7-7 7-22-3-51zm-434-101c36-40 79-64 144-79 36-9 64-21 62-26-5-16-86-7-132 15-59 28-125 85-116 100 10 16 20 14 42-10z"/>
  <path d="m6092 5593c-24-58-20-78 14-71 16 3 20 14 22 66 2 34-1 62-5 62s-18-25-31-57z"/>
  <path d="m3135 5630c-3-4 0-34 6-66 12-66 20-75 134-151 80-53 276-153 300-153 32 0-3 37-77 80-112 67-175 116-271 211-48 47-89 83-92 79z"/>
  <path d="m3897 5559c-44-23-87-87-87-129 0-40 27-103 40-95 6 4 7 23 4 46-8 48 12 54 28 9 12-37 29-34 40 6 10 38 42 68 91 84 51 16 47 30-10 30-34 0-55-7-80-26-46-35-67-18-23 19 35 30 85 42 135 34 22-4 38-1 45 9 30 36-119 47-183 13z"/>
  <path d="m5723 5522c-67-22-140-83-164-136-22-48-25-91-6-82 6 3 20 9 29 12 10 4 33 28 52 54 45 62 102 90 185 90 127 0 213-83 228-220 5-50 3-60-9-60s-17 14-20 55c-10 115-93 195-206 195-54 0-116-24-142-55-21-26-4-29 67-11 88 21 108 20 154-6 60-33 81-92 59-167-8-28-6-38 11-60 11-14 28-37 38-50l17-24 24 39c21 34 24 51 24 139 1 89-2 106-26 150-26 49-82 108-126 133-39 22-131 24-189 4z"/>
  <path d="m6060 5484c-8-3-21-8-29-10-11-4-10-8 4-24 13-14 31-20 64-20 53 0 124-30 163-67 34-33 75-130 60-145-16-16-29-2-35 39-13 77-101 143-190 143-47 0-26-24 29-33 54-9 90-30 79-46-4-8-15-7-33 3-15 7-40 16-56 20-26 6-28 5-22-16 3-13 9-42 13-66 4-27 13-46 25-53 10-5 32-28 48-51 24-33 30-51 30-93 0-38 4-55 15-59 33-12 48 85 21 148-7 18-28 48-45 68s-31 38-31 42c0 16 29 3 57-26 41-43 65-116 61-184-2-30 1-54 7-55 17-2 54 105 59 171 4 65 20 97 32 66 14-36-11-158-51-248-5-14-2-18 14-18 18 0 35 18 41 45 1 6 7 21 13 35s13 67 15 117c5 107-11 153-78 221-63 65-121 94-198 98-37 2-74 1-82-2z"/>
  <path d="m3165 5414c13-71 21-80 117-129 78-41 347-139 356-130 1 1-2 13-8 27-8 17-35 34-88 57-98 42-223 109-308 167-37 24-69 44-71 44-3 0-2-16 2-36z"/>
  <path d="m3982 5434c-32-22-28-44 8-44 17 0 30 3 30 8 0 4 3 17 6 30 8 27-11 29-44 6z"/>
  <path d="m5469 5397c-24-13-59-43-76-66-28-36-33-51-33-97v-55l25 18c16 12 24 28 25 48 0 37 48 111 62 97 6-6 1-23-13-46-26-44-19-56 19-34 21 13 28 27 33 65 4 26 10 58 14 71 9 28-1 28-56-1z"/>
  <path d="m482 5364c-42-83-106-254-117-315-6-31-28-123-31-127-1-2-23 19-49 47s-51 48-56 45c-28-17-82-295-82-429-1-142 41-318 91-382 16-22 19-22 66-8 27 8 66 15 88 15 21 0 38 5 38 10 0 32-35 72-89 100-78 42-158 143-149 188 2 12 17-3 45-44 45-65 95-114 119-114 16 0 17 4 5 28-50 94-149 427-137 459 10 24 24 5 36-49 26-116 105-366 122-383s-3 105-28 175c-24 67-24 76-1 67 26-10 76-199 77-292 0-46 6-77 16-90 14-19 15-19 42-2 15 10 38 22 52 28 18 7 34 28 53 73 15 34 25 69 22 77s-26 27-51 43c-53 33-121 114-168 200-38 68-47 97-29 103 6 2 27-29 48-71 21-43 61-102 96-140 63-69 86-82 75-43-4 12-9 33-12 47s-9 41-14 60-11 47-14 62c-2 15-22 49-44 77-23 28-50 77-62 108-26 67-39 183-21 183 6 0 11-2 11-5 0-33 37-170 56-207 23-45 54-69 40-31-9 23-25 247-26 351 0 63 3 82 14 82 10 0 14-32 19-147 6-170 25-309 39-295 6 6 13 61 16 123 4 65 11 114 17 114s11-41 13-98c2-84-1-105-22-159-22-54-24-68-15-112 15-78 41-166 50-166 8 0 40 91 46 130 2 14 9 73 15 133 9 74 16 107 25 107 10 0 12-22 7-102-7-114-31-224-64-288-23-46-20-62 7-38 10 9 33 23 52 33s61 45 93 79c67 70 69 84 37 186-25 80-83 230-111 284l-20 39-66-106-7 54c-6 52-27 133-45 174-5 11-23 54-40 95-45 105-53 112-78 64z"/>
  <path d="m3955 5351c-42-11-107-45-126-67-9-11-27-39-39-63-19-38-21-57-18-135 2-76 8-101 32-150 38-77 93-131 173-168 55-26 77-31 138-30 83 1 157 27 198 70 40 42 75 172 47 172-5 0-21-25-35-55-15-30-46-71-71-93-83-74-166-73-271 1-51 36-86 87-109 157-16 49-16 57 0 125 19 79 71 174 87 158 6-6-4-35-26-79-29-58-35-79-35-136 0-83 9-106 62-164 54-59 104-84 166-84 59 0 101 25 149 88 41 54 44 92 8 92-14 0-25-4-25-9s-12-23-26-40c-35-41-87-56-143-41-50 13-128 80-116 99 5 9 17 3 44-22 48-47 109-64 154-42 41 20 73 63 58 78-7 7-16 6-29-6-30-28-75-39-106-27-36 13-23 32 17 25 20-3 39 0 51 10 19 15 19 16-14 50s-54 40-56 17c-1-7-2-16-3-22 0-5-8-10-16-10-19 0-19 27-1 61 12 24 12 30-4 54l-18 28-27-27c-14-14-31-40-37-56-11-32-38-41-38-14 0 24 37 80 67 102 24 17 25 22 15 52-7 18-12 50-12 71 0 42-5 44-65 30z"/>
  <path d="m5770 5342c0-14 89-96 96-89 4 4-3 18-15 31-29 30-19 56 11 29 29-26 42-54 40-85-2-19 2-28 13-28s15 11 15 44c0 38-5 48-35 75-29 25-45 31-80 31-25 0-45-4-45-8z"/>
  <path d="m5660 5313c-128-42-242-117-375-244-56-54-65-59-140-74-53-11-123-17-210-16-245 2-389-51-509-190-40-47-94-145-84-154 3-3 17 0 31 6 27 12 67 4 51-10-5-4-38-20-74-34-65-27-146-95-230-192-24-28-57-50-104-70-88-36-180-124-219-207-36-76-35-93 7-113 19-9 42-25 52-36 9-10 28-19 41-19 26 0 97-33 125-57 15-14 23-11 78 23 133 84 158 98 231 135 139 70 347 127 364 100 7-13 8-13-100-36-44-10-93-24-110-31-16-7-59-24-95-39-72-30-253-134-301-175l-32-26 17-33c17-32 17-32 44-15 15 9 36 24 47 33 27 23 127 82 200 119 66 33 236 92 265 92 17 0 80-66 151-161 46-61 96-163 110-224 7-27 13-55 15-62s18-19 36-26c18-8 56-35 85-61 49-44 52-46 62-27 24 45 14 77-42 128-31 28-70 77-92 118-21 39-63 107-92 152-64 99-70 113-50 113 8 0 25-16 36-36l21-36 48 40c59 50 173 170 229 241 32 40 44 49 49 38 11-28-144-209-259-303l-49-39 19-33c10-17 21-32 24-32s42 29 86 65c93 74 202 196 266 297 10 17 23 25 32 22 40-16-174-269-313-368-28-21-52-41-52-46 0-16 69-126 97-153 20-20 34-26 52-22 38 10 130 73 192 132 36 35 60 50 64 43 4-6-2-21-14-33-19-21-20-25-6-82 26-108 17-207-31-335-21-58-45-99-107-184-18-24-18-26 0-50 24-33 36-32 67 5 70 83 129 256 145 424 3 41 10 68 16 65 10-5 12-105 3-170-7-48-48-183-59-194-5-6-9-16-9-24 0-17-53-97-92-138-29-31-29-32-14-63 9-17 14-31 11-31s-1-9 5-21c11-19 13-19 29-5 36 33 113 154 141 225 41 99 60 184 74 321 8 89 14 115 26 115 11 0 14-14 12-67-2-69-31-229-56-308-21-69-76-181-109-224-32-40-29-67 6-74 17-3 80 76 115 145 25 48 73 173 67 173-2 0 3 19 11 42 8 24 17 65 20 93 7 68 13 85 30 85 19 0 18-23-6-129-37-168-95-302-169-390l-40-48 22-22c30-27 38-27 69 7 75 81 149 244 170 371 16 97 38 121 38 42 0-113-92-328-184-428-36-41-38-45-26-73 7-16 16-30 21-30 14 0 113 119 139 168 73 134 80 150 120 260 21 59 29 69 42 56 13-12-59-196-119-303-38-68-136-197-155-203-15-5 1-68 17-68 45 0 232 229 267 328 7 17 18 32 25 32 66 0-142-301-258-376-30-19-36-27-32-48 3-14 8-26 12-26 3 0 30 14 59 31 73 41 180 149 237 238 32 50 49 70 55 61 25-40-182-278-293-335-44-23-57-34-57-52 0-13 3-23 7-23s44 18 89 41c83 41 201 142 272 234 21 28 34 37 41 29 14-13-72-119-158-195-64-56-159-111-223-129-21-6-38-15-38-21 0-24 177 30 251 76 24 15 60 41 80 56 36 28 69 38 69 20 0-14-91-77-173-119-70-36-176-72-216-72-20 0-35-25-25-41 15-25 198 10 308 60 36 16 94 50 129 75 69 49 77 53 77 34 0-29-151-125-256-162-39-14-116-31-171-38l-101-13-36-54c-27-39-34-57-26-65 7-7 66-11 163-11 143 1 156 2 222 29 39 15 82 30 96 33 20 4 28 13 33 36 3 16 4 32 2 34s-24-5-49-16c-74-32-243-62-327-59-41 2-75 7-75 13s58 15 130 21c141 12 219 31 306 74 31 15 67 26 81 25 40-5 100-41 141-85 54-58 84-54 110 15 56 152 56 162-2 237-20 26-58 79-86 118-27 39-65 90-82 113-18 23-33 48-33 55 0 33 32 0 110-110 110-156 187-248 208-248 53 1 108 67 105 126-1 41-43 124-62 124-5 0-55 43-111 96-69 66-98 100-91 107s38-17 98-74c103-100 172-149 207-149 33 0 66 43 66 88 0 29-9 43-48 81-26 25-69 63-95 84-45 37-58 57-36 57 5 0 38-23 72-50 34-28 72-53 85-56 51-14 86 63 59 129-9 19-41 63-72 97-52 57-91 122-100 169-10 51-78 161-134 216-34 33-61 63-61 68 0 31 101-51 149-120 13-20 27-30 36-27 25 10 106 125 140 199 106 230 77 487-81 720-33 49-40 67-37 95 9 68-14 214-42 273-29 61-90 129-139 154-61 31-160 53-246 53h-85l-40 68c-22 36-82 111-134 164-85 90-97 98-130 97-20 0-43-3-51-6zm78-195c-3-7-31-16-64-20-74-10-105-22-176-70-65-43-68-44-68-24 0 19 51 57 120 88 78 36 79 36 138 37 39 1 53-2 50-11zm81-57c22-14 3-31-35-31-39 0-136-31-206-66-31-16-49-20-53-13-9 13-11 11 55 45 49 25 188 72 215 73 6 1 16-3 24-8zm-483-133c4-6 2-14-4-16s-46-26-88-54c-82-54-132-74-148-58-6 6 8 17 37 29 26 11 76 41 113 66 71 48 79 51 90 33zm444-3c15-18 8-21-71-29-31-3-72-13-92-21-45-19-57-19-57 0 0 9 24 21 68 34 121 35 135 37 152 16zm503-147c63-42 129-114 157-169 27-52 29-69 9-69-5 0-17 20-28 45-23 52-98 136-150 167-20 12-38 23-40 24-4 4 9 24 16 24 2 0 19-10 36-22zm-120-43c99-50 183-124 208-183 27-62 8-79-21-21-35 69-109 133-204 179-82 40-94 49-80 63 8 8 0 11 97-38zm-1383 6c0-15-113-55-228-81-39-9-57-9-64-2-13 13-16 12 105 42 49 12 107 30 130 40 41 17 57 17 57 1zm1329-74c71-35 150-101 138-113-4-5-14-4-21 1-67 51-149 98-193 111-51 15-61 23-46 38 11 10 50-1 122-37zm-571 7c-17-16-278-104-310-104-44 0-51 17-10 26 67 15 104 26 202 63 62 23 109 35 114 30s7-11 4-15zm-718-8c0-8-28-25-67-39-64-24-91-32-233-74-173-51-192-63-395-252-71-66-133-121-137-121-25 0 5 38 105 130 203 190 247 221 357 253 132 39 316 98 330 107 22 14 40 12 40-4zm1010-42c70-16 160-53 160-65 0-15-21-21-34-10-7 6-39 20-71 31-106 36-298 22-392-29-96-52-252-111-295-111-50 0-27 21 42 40 36 9 122 43 192 74 194 85 274 99 398 70zm-110-89c0-9-14-16-37-20-21-3-49-8-64-10-14-2-64-22-111-44-133-63-186-80-298-96-126-18-186-19-196-4-12 20 20 29 111 29 114 0 215 25 331 80 153 73 264 100 264 65zm-1085-26c10-15 2-19-45-30-100-22-227-105-392-253-65-58-103-85-109-79-12 12 109 128 221 212 151 114 304 185 325 150zm1381-70c44-23 106-51 139-64 32-12 61-28 63-35 8-24-71 1-178 56-57 30-112 54-122 54s-18 7-18 15c0 25 33 17 116-26zm-1394-34c-2-5-24-18-49-28s-65-31-88-47c-24-17-49-30-55-30-36 0 35 61 115 99 41 20 83 23 77 6zm-64-167c-3-7-23-18-45-24-54-16-207-88-258-121-22-15-56-37-76-50-19-13-44-23-55-23-16 1-13 6 16 31 45 38 209 132 280 160 30 11 64 25 75 29 31 13 67 12 63-2zm1505-19c54-6 127-9 162-5 67 7 84-3 44-24-36-20-379 9-379 31 0 10 30 17 55 13 11-1 64-8 118-15zm-1049-38c9-14-69-96-82-87-9 5-1 21 24 52 37 44 48 51 58 35zm406-10c0-18-82-113-195-226-97-98-153-141-165-129-5 5 26 40 78 85 48 41 125 121 172 177 76 90 110 120 110 93zm963-51c23-7 37-17 37-27 0-11-6-14-22-8-13 3-112 10-220 14-109 4-200 10-204 13-3 4-4 10-1 15 7 11 364 5 410-7zm-133-129c0-26 28-46 92-66 66-20 116-49 125-70 10-27-5-28-39-2-18 13-64 35-102 48-40 14-76 33-87 48-19 24-25 52-13 64 11 10 24-2 24-22zm-910-83c-1-13-26-34-153-128-90-66-124-84-133-68-4 6-2 14 4 16 17 5 227 159 242 177s40 20 40 3zm603-51c24-18 59-39 78-46 71-27 79-31 79-41 0-18-43-10-104 20s-116 72-116 90 19 11 63-23zm-270-3c23 3 57 9 75 12 45 9 40-10-8-30-73-29-198-14-176 22 5 8 15 8 37 0 17-6 49-8 72-4zm5-114c16 0 48 6 70 14 38 14 52 12 52-5 0-10-88-39-120-39-29 0-90 18-104 30-4 5-5 13-2 19 4 6 18 5 41-5 19-8 47-14 63-14zm395-32c68-11 90-24 63-34-36-14-256 51-256 75 0 18 14 17 71-6 33-13 88-29 122-35zm-168-77c3-6-3-14-12-20-25-13-179-35-198-27-31 11-14 26 33 27 26 0 70 7 97 14 65 16 73 17 80 6zm382-62c13-5 23-16 23-25 0-11-5-14-17-9-57 21-115 28-160 17-45-10-77-2-60 14 22 23 158 24 214 3z"/>
  <path d="m3200 5263c23-78 22-78 142-120 110-40 285-95 340-107 14-3 33-9 42-12 12-5 16 0 16 20 0 18-10 32-37 51-21 14-46 25-56 25-39 0-318 103-396 146-55 31-61 30-51-3z"/>
  <path d="m4716 5219c-9-34-28-77-42-98-30-44-19-50 59-27 38 11 67 29 100 62 52 51 57 63 26 71-12 3-42 17-68 29-25 13-49 24-52 24s-13-27-23-61z"/>
  <path d="m6100 5171c0-10-13-45-30-77-16-32-30-62-30-66 0-5 31-8 69-8 79 0 88 8 71 71-11 38-54 99-71 99-5 0-9-8-9-19z"/>
  <path d="m3246 5123c11-47 22-61 56-72 198-62 319-94 435-116 30-6 31-5 24 21-6 22-17 30-71 45-205 60-411 128-424 140-18 17-26 9-20-18z"/>
  <path d="m3301 4981c21-39 22-39 153-70 130-31 344-66 352-58 12 12-11 37-39 42-84 18-311 76-382 99-108 35-111 34-84-13z"/>
  <path d="m2483 4966c-35-13-89-39-120-57-59-35-273-238-273-259 0-7 14-25 32-41l31-30 56 14c55 14 56 14 59 53 5 69 23 145 34 142 7-3 10-38 9-96l-2-92h25c14 0 26 5 26 12 0 20 99 214 119 232 32 29 33 1 1-51-16-26-45-83-64-125-35-76-35-78-15-89 17-9 27-5 65 26 24 20 59 54 76 76 30 38 58 51 58 28 0-6-33-44-73-84l-73-73 33-31c18-17 38-49 44-71 8-27 22-46 39-55 25-13 29-12 48 8 11 12 23 42 27 67 14 94 91 279 135 324 24 25 39 12 20-17-41-65-75-138-100-215-15-48-26-89-23-92 2-3 85 77 183 176 123 124 183 178 192 173 9-6-41-62-170-191-100-101-182-189-182-196 0-23 180 57 255 114 62 48 83 31 23-18-62-51-147-93-246-124-48-15-92-31-98-36-9-6-6-21 12-54 19-36 24-60 24-123v-77l35-17c18-9 42-28 51-42 31-48 75-24 109 60 25 62 92 174 130 220 16 20 28 26 35 19s-2-26-28-60c-48-64-116-194-102-194 17 0 176 124 242 188 42 41 61 53 69 45 16-16-29-57-260-240-2-2-2-6 1-9 9-8 108 23 172 56 63 32 76 36 76 20 0-28-176-102-275-115-52-7-125-39-125-54 0-5 19-12 43-16 56-10 94-30 140-73l37-36 51 49c61 60 129 161 180 270 34 72 80 197 76 202-8 7-188 24-219 20-33-4-38-3-34 11 43 162 66 300 66 392v90h-57c-73 0-187-14-328-40-60-11-116-20-122-20-9 0-13 18-13 59 0 33-3 66-6 75-9 23-57 19-131-8z"/>
  <path d="m3350 4893c0-4 14-29 32-54 22-33 41-49 61-53 16-3 122-6 235-6 200 0 205 0 188 19-13 14-37 20-94 25-83 7-188 26-319 57-91 21-103 22-103 12z"/>
  <path d="m3785 4749c-44-5-138-7-210-4l-130 6 37-36 38-35h97c127 1 313 42 313 70 0 11-29 11-145-1z"/>
  <path d="m3945 4717c-47-30-215-67-307-67-27 0-48-4-48-9 0-13 99-49 157-56 43-6 54-3 111 32 107 66 157 113 119 113-7 0-21-6-32-13z"/>
  <path d="m3986 4670c-27-23-56-45-65-50-9-4-13-12-9-15 12-12 101 24 138 55 29 25 32 31 20 40-24 16-32 12-84-30z"/>
  <path d="m915 4615c-43-17-88-55-113-97-9-16-32-33-50-39-45-15-108-73-133-120-10-21-19-41-19-44s20-5 45-5 45 5 45 10c0 23 43 100 56 100 18 0 18-3-6-47-25-46-26-79-2-86 9-2 24-8 34-12 12-5 18 1 23 27 16 69 82 174 100 157 2-3-14-40-36-83-21-43-39-89-39-103 0-23 2-24 48-17 26 3 47 7 48 8 0 0 18 44 39 96 44 110 42 107 56 93 7-7 2-31-17-79-15-38-31-73-35-78-21-24-8-44 35-55 25-6 47-11 50-11s8 17 12 38c4 20 15 60 24 87 10 28 17 52 18 55 5 51 16 81 31 77 9-2 15-8 14-13-4-20-42-160-56-207-15-47-15-48 9-63 13-9 29-14 35-12 13 4 56 115 63 164 3 17 10 43 16 58 5 15 10 38 10 52 0 15 6 24 16 24 12 0 14-8 9-47-8-57-38-158-66-229-20-48-21-52-4-77 36-56 73-3 119 173 22 85 35 115 46 104s-16-129-51-222c-10-29-19-55-19-57 0-3 16-5 35-5 31 0 36 4 55 47 12 26 25 68 31 93 15 71 30 110 40 110 16 0 4-78-26-160-40-112-40-117-15-125 12-4 22-5 23-3s17 19 34 38c27 30 36 51 51 130 11 56 23 95 31 98 14 5 12-37-5-135l-6-32 35 11c34 10 35 13 46 82 6 39 13 92 16 117l4 47-42 11c-23 6-60 15-82 21-33 8-43 17-59 51-22 45-53 70-109 89-48 15-94 7-143-26-30-20-42-24-54-15-62 45-152 59-215 36z"/>
  <path d="m1950 4624c-53-20-82-38-95-58s-22-23-59-19c-45 6-88-10-118-44-16-18-40-134-51-245-4-43-3-47 22-51 17-4 31 0 40 11 18 23 88 171 96 205 7 27 35 39 35 14 0-21-47-135-80-193l-30-53 30-21c16-12 35-18 40-15 13 8 64 114 100 209 26 66 50 97 50 62 0-24-43-133-89-223-36-72-40-86-29-103 25-40 50-20 98 75 25 50 58 130 74 178 26 81 38 99 50 79 7-11-45-163-88-256-20-44-35-80-34-81 2-1 21-6 43-11l39-10 24 51c13 27 28 58 34 69 11 21 64 164 79 214 6 17 16 32 24 32s15-3 15-7c0-10-57-172-70-198-5-11-25-54-43-95l-34-75 38-27c28-20 40-24 47-15 19 23 69 158 117 320 14 48 30 87 35 87 19 0 21-22 7-63-8-23-22-67-32-97-20-66-52-153-72-198-17-38-10-52 15-34 17 12 30 18 56 26 15 5 52 80 60 120 3 12 11 44 19 71 9 28 18 69 22 92 7 42 28 72 39 55 6-10 2-39-13-86-6-17-13-45-15-61-3-17-16-61-30-98l-24-67h48c48 0 49 1 65 43 9 24 24 81 33 128 10 48 21 82 27 79 16-8 12-59-12-149-13-47-21-86-19-88s16 3 32 11 36 17 44 19c10 3 22 32 34 81 12 51 22 76 32 76s13-7 9-22c-8-36-24-123-22-125 1 0 19-4 40-8l37-7v59c0 100-35 166-101 193-18 8-29 20-29 32 0 10-9 36-20 58-15 30-34 45-84 70-60 30-71 32-144 29-58-3-85-9-99-22-26-22-30-22-37 7-3 14-19 34-36 46-29 21-111 35-140 24z"/>
  <path d="m544 4261c-22-10-56-32-76-50-30-26-44-31-87-31-78 0-127-29-157-93-13-29-24-69-24-90 0-27-9-49-30-75-39-50-70-121-77-182-6-49 13-166 28-175 4-3 3-22-3-42-23-84 10-170 96-250 31-29 56-59 56-66 0-22 71-107 102-123 30-15 48-12 48 9 0 7 11 29 25 49s25 39 25 42c0 2-22 12-48 20-53 18-92 42-92 57 0 13 21 11 53-6 22-11 121-45 133-45 3 0 44 70 44 74 0 2-17 7-37 11-40 7-182 62-197 76-6 6-6 13 1 20 8 8 20 6 44-6 48-25 169-65 196-65 24 0 73 26 73 39 0 4-31 15-69 24-125 32-311 118-311 144 0 19 6 17 95-26 131-64 286-111 362-110 26 0 80 6 118 13 67 12 69 13 42 24-16 7-38 12-50 12-39 0-164 29-239 56-151 54-332 164-309 187 7 7 23 2 53-20 117-83 311-162 451-184 83-13 97-9 70 18-12 12-41 23-69 27-71 11-169 42-237 77-131 66-312 229-256 229 6 0 42-28 78-62 75-70 172-131 272-171 81-32 187-58 194-47 3 4 2 22-1 39-5 26-12 32-43 37-63 12-155 54-231 105-78 52-216 197-202 211 8 8 32-11 89-69 105-107 210-177 313-209 60-18 60-18 60 14 0 23-6 30-37 41-64 22-158 78-211 126-74 67-149 187-114 184 4 0 30-32 57-72 28-39 75-90 105-114 63-48 176-107 195-99 7 2 15 18 17 35 4 30 1 33-71 72-84 44-191 142-222 201-29 56-6 55 35-1 54-73 134-142 207-178 58-29 65-30 77-15 18 23 15 30-20 48-40 21-188 170-188 190 0 28 26 12 69-41 24-30 70-75 103-100l59-45 30 22 29 22-58 61c-59 60-92 102-92 117 0 17 30 7 41-14 7-13 39-51 72-85l60-63 56 6c31 4 60 10 65 15 6 5-15 31-52 65-34 30-62 60-62 65 0 19 24 7 72-36 28-25 54-45 59-45 4 0 20 12 34 26 33 33 27 54-28 94-58 43-132 62-221 59-46-2-79 1-88 8-61 52-180 67-254 34z"/>
  <path d="m1530 4163c-42-28-81-66-96-95l-14-27-36 24c-47 32-96 40-147 25-60-18-92-44-117-95-21-44-23-45-69-45-117 0-193-92-200-241-7-169 92-362 235-455 36-24 39-12 9 32-56 81-113 213-144 334-20 76-20 90 3 90 9 0 16-18 21-47 22-150 172-450 241-482 38-17 41-7 12 37-98 148-170 367-172 524-1 48 18 55 22 8 4-49 30-173 54-254 32-107 138-310 179-343 14-10 69-27 69-20 0 2-24 50-54 108-50 95-118 277-129 346-3 15-13 71-23 124-18 102-14 150 10 116 8-9 17-50 20-90 16-163 78-353 170-519 44-79 55-93 79-96l28-3-19 38c-34 67-96 235-106 289-2 10-9 37-15 59-5 22-13 60-16 85-2 25-10 86-16 135-13 114-10 180 11 180 12 0 16-24 21-135 10-214 52-392 131-562 38-82 61-112 53-70-30 152-60 368-69 492-16 205-17 278-7 284 16 10 17 3 35-229 23-295 65-565 88-565 5 0 8 7 5 15-8 18-11 784-4 792 23 23 27-31 27-402 0-217 4-396 8-399 18-11 61 181 82 369 7 55 14 173 17 263 5 135 8 162 21 162s14-24 8-189c-4-104-9-209-12-233-10-83-44-271-59-321-18-61-18-57-2-57 23 0 83 139 127 295 21 77 40 251 40 378 0 108 2 127 15 127 14 0 16-22 15-164-2-132-6-186-25-273-27-122-65-245-95-303-43-84-8-82 55 2 122 163 177 366 160 598-5 71-3 100 5 100 22 0 29-49 25-200-2-105-8-170-19-203-8-26-15-48-14-50 1-1-5-20-12-42-20-64-70-156-108-203-19-23-32-45-29-48 14-14 86 36 130 91 107 133 157 284 157 477 0 75 3 99 13 95 8-2 12-36 14-115 2-169-44-314-142-451-20-28-31-51-25-51 23 0 131 63 176 103 65 57 121 137 150 214 33 88 33 220 0 279-25 45-59 66-98 61-25-3-28 0-34 32-12 68-62 130-130 164-43 22-123 31-167 19-20-6-37-7-37-3 0 18-86 105-117 117-44 19-132 17-163-3z"/>
  <path d="m2510 4104c-8-4-30-16-49-27-24-15-56-21-115-24-90-4-153-28-185-69-19-24-19-26-1-67 10-23 23-43 27-44 14-5 160 74 204 109 27 22 43 28 50 21 13-13-55-68-133-108-32-17-58-33-58-36s9-14 20-24c20-18 22-17 104 24 46 23 109 64 142 92 55 46 84 60 84 40 0-25-211-173-267-187-24-6-28-20-14-42 13-22 164 41 307 128 72 45 74 45 74 26 0-25-183-131-300-172-36-13-65-28-64-34 1-5 2-19 3-30 1-19 5-20 39-14 86 16 252 94 354 166 9 7 20 9 24 5 32-32-242-177-388-204-22-4-29-12-34-40-3-18-4-37 0-40 8-8 105 14 190 43 81 28 164 73 222 120 41 34 64 43 64 25 0-17-97-90-166-125-83-42-172-73-261-89-59-11-66-15-78-44l-14-33h45c90 0 305 70 355 116 26 23 45 7 22-18-45-51-234-116-359-125-77-5-82-7-99-35-9-16-14-32-10-36 13-13 189-3 260 14 86 21 196 60 254 91 42 22 68 23 55 1-9-15-141-75-215-98-34-10-107-27-161-37s-98-20-98-23 15-15 33-28c51-34 168-34 264 1 40 14 80 30 90 35 10 6 36 18 58 28 22 11 61 31 86 46 44 24 59 26 59 7 0-18-251-139-320-154-38-8-47-23-24-40s52-13 136 22c40 16 64 21 71 14 10-10-40-38-118-64l-40-14v-67l-1-68 31 5c72 12 160 99 185 185 11 35 17 42 38 42 45 0 106 44 131 95 27 54 30 144 7 199-11 26-13 59-9 129 6 105-4 150-44 198-32 38-112 79-155 79-29 0-36 6-58 47-34 64-98 103-177 109-32 2-65 1-73-2z"/>
  <path d="m4535 3994c-122-42-231-97-328-164-117-80-111-74-101-121l9-42 30 25c64 54 255 175 355 226l105 53 52-57c48-51 143-219 143-252 0-23-30-12-36 14-16 64-128 239-162 251-7 3-18 1-25-6-8-8-5-17 10-33 29-31 87-141 109-208 10-30 23-58 29-62 5-4 41-8 78-8h68l-7 38c-8 50-45 130-91 199-45 68-141 173-157 172-6 0-42-11-81-25z"/>
  <path d="m3675 3987c-29-14-72-54-64-60 2-2 16-11 31-20 48-30 64-82 59-184 0-13-7-23-15-23-10 0-15 21-18 75-6 86-18 106-79 124-58 17-113 6-154-33-57-54-59-111-4-165 22-22 40-31 63-31 32 0 66 25 66 48 0 13 16 16 23 5 8-15-12-52-37-68-28-19-49-21-91-10-27 7-29 7-17-8 18-22 12-97-10-111-21-13-36 0-20 16 7 7 12 26 12 44 0 24-9 40-35 63-20 17-45 31-56 31-59 0-128-73-136-144-10-84 63-154 149-143 34 5 52 13 104 52 7 5 17 6 21 1 14-14-66-74-108-81-44-8-95 1-124 21-51 36-146 2-183-65-59-104-4-247 103-267 26-5 35-11 33-23-2-9-11-15-21-13-15 3-17-7-17-75 0-54 6-90 19-118 24-53 91-112 136-121 20-3 39-13 42-21s0-41-7-74c-10-47-10-69-1-99 16-53 43-70 113-70 52 0 59-3 67-23 18-47 62-86 122-108 33-12 62-25 64-30 6-9-36-39-80-58-49-21-165-49-237-56-152-15-57-40 147-38 72 0 149 5 173 11 35 8 44 7 49-4 3-8 2-18-2-22-3-4-108-7-231-7s-224-4-224-8c0-11 60-128 81-158 14-20 16-33 9-60-43-166-45-178-45-314 0-131 2-144 26-195 21-44 28-75 32-151 6-110 34-182 87-219 32-23 150-52 163-41 4 4 1 27-8 50-8 24-15 78-15 120-1 71-2 78-31 106-36 35-55 69-75 134-18 60-18 91 1 91 14 0 20-17 16-47-4-28 45-121 84-163l43-45-1-90c0-63 5-102 17-130 18-42 67-99 101-118 27-14 131-36 177-37 61 0 67 5 56 53-5 23-8 75-5 115 2 40 1 74-3 77-23 14-90 185-90 230 0 42 17 46 26 7 3-15 8-36 11-47s5-21 5-22c-3-6 41-100 61-132 18-30 21-47 18-118-5-164 55-247 201-276 70-14 91-37 34-37-43 0-130 33-173 66-17 13-33 24-35 24s-30-32-62-70c-31-39-64-70-72-70s-14 2-14 5 29 41 65 85c36 43 61 81 56 84s-23 3-40 0c-22-5-46-25-87-75-31-38-60-69-65-69-19 0-7 27 31 74 42 51 46 61 29 71-23 15-57-8-99-65-24-33-49-60-57-60-21 0-16 13 32 75 42 54 44 59 28 71-16 13-24 8-76-48-42-44-61-58-69-50s4 25 41 64c39 42 48 57 39 66-20 20-32 14-83-38-44-45-75-62-75-43 0 4 25 33 57 65 48 49 54 59 43 72-7 9-15 16-19 16-3 0-35-27-71-60-60-55-90-72-90-51 0 4 23 29 50 55 28 26 50 48 50 50s-16 7-36 11c-20 3-45 11-54 18-25 15-68-15-219-153-124-114-156-155-144-187 32-90 247-232 385-254 114-19 168-2 273 86 28 23 77 63 110 90 33 26 80 68 103 92 34 34 50 43 70 41 26-3 27-6 32-79 6-86 18-108 82-140 34-17 62-19 282-19 296 0 295 0 346 98 25 47 48 76 78 97 24 16 79 63 123 103 44 39 84 72 90 72 5 0 7 11 3 25-7 29 15 35 35 11 14-17 133-46 189-46 21 0 63 7 93 16 109 32 159 97 159 206 0 35-3 73-6 85-15 57-64 0-64-74 0-98-31-151-108-184-81-35-247-17-277 30-4 8-22 10-50 6-29-5-45-3-50 5-10 16 13 30 48 30 24 0 27 4 27 31 0 29-2 31-27 26-15-3-33-3-40 0-25 10-13 20 28 26 60 8 124 78 128 139 3 50 34 111 67 129 35 18 41 3 12-29-30-31-52-71-44-79 3-3 30 9 60 26 35 19 57 27 62 20 3-6 4-11 3-13-2-1-17-12-33-24s-46-27-67-32c-31-8-39-16-39-33 0-45 12-47 85-11 85 42 130 84 161 149 43 90 29 306-20 325-12 4-50 10-86 14-72 8-196 53-252 91-47 32-52 31-77-4l-21-29 53-26c30-14 98-37 153-51 184-49 224-79 224-165 0-57-7-80-25-80-10 0-12 14-8 58 4 48 2 61-17 84-21 28-40 35-220 83-36 10-93 31-127 47l-61 28-50-25c-27-14-57-25-66-25s-16-3-16-6c0-35 95-100 183-124 62-17 88-40 45-40-67 0-208 74-249 131-16 22-28 29-55 29-19 0-34-5-34-11 0-25 36-69 77-94 23-16 43-31 43-35 0-38-100 26-139 90-25 40-36 49-68 54-48 9-64 18-54 34 5 9 16 9 41 2 53-15 180-12 239 6 99 29 182 130 193 237 5 41 3 47-13 47-14 0-22-12-31-46-15-55-72-124-131-158s-144-45-242-30c-44 6-87 14-95 18-10 3-24-7-40-30-28-40-116-103-175-126-22-9-75-22-118-29-91-15-102-10-93 48 9 48 66 164 88 177 24 14 34 0 15-21-38-43-86-183-61-183 3 0 37 7 77 16 86 19 178 66 224 113 98 101 99 250 2 398-19 28-24 45-17 49 39 25 141-221 122-293-6-23-6-23 104-23 107 0 111 1 157 33 27 17 62 51 78 75 30 41 30 43 12 56s-22 11-42-24c-35-58-107-90-201-90-54 0-73 3-70 13 3 7 33 14 79 18 98 8 144 30 170 81 19 37 19 41 4 58-30 33 4 35 38 2 49-46 89-62 157-62 74 0 123 19 173 68 52 49 79 104 75 150-2 29-7 37-22 37s-23-12-33-54c-8-29-21-64-31-78-23-36-107-73-164-73s-64 16-10 25c121 21 161 51 170 132 4 37 2 43-14 43-12 0-26-15-37-40-24-51-103-93-168-88-31 2-44 7-44 18 0 8 9 15 20 16 11 0 40 1 64 2 34 2 50 9 77 36 19 19 34 39 34 45 0 20-32 25-42 7-23-40-126-60-164-31-17 13-15 14 36 15 34 0 64 6 78 16 25 17 21 34-7 34-21 0-46 26-33 34 4 3 26-1 48-9 23-8 79-14 137-15 84 0 104 3 146 24 59 30 106 82 140 155 23 51 25 68 25 176 0 117-1 122-37 198-26 57-53 95-97 138-33 32-66 59-74 59-26 0-56-45-56-85 0-31 8-46 46-87 63-67 102-156 100-227-1-42-5-56-16-56s-15 14-15 55c-1 37-10 75-29 117-30 65-77 120-95 109-17-11-13-22 19-58 32-35 48-73 52-128 2-26-1-35-12-35-8 0-14 6-12 14 5 22-27 107-48 126-19 17-40 13-40-8 0-7-9-27-21-46-29-49-47-27-21 26 105 206 72 379-96 510-23 18-23 20-11 79 15 73 7 117-31 177-54 85-154 137-267 137-35 0-68 7-95 21-86 44-192 60-245 37-34-14-83-58-83-73 0-8 26-15 67-18 63-6 94-19 80-33-3-3-43-1-89 5-98 13-170 3-201-28-26-25-20-31 39-42 57-11 101-36 86-51-6-6-21-4-42 7-18 9-56 19-84 22-52 5-52 5-90-42-22-26-35-50-30-55 16-15 117-40 187-47 68-6 92-18 62-29-23-9-175 13-231 34-36 13-48 14-51 5-5-15-33-18-33-3 0 5-20 18-45 29s-48 27-51 35c-11 28-22 17-29-26-4-24-15-63-26-87l-19-43 45-51c48-56 95-161 95-215 0-51-15-38-35 31-10 34-25 76-33 92-19 40-81 115-94 115-7 0-9-40-5-125 5-127-3-158-23-85-9 34-14 39-28 31-23-12-116-111-131-139-6-12-16-22-22-22-5 0-23 28-39 63-71 149-20 246 148 280 67 14 97 35 117 85 23 55 33 160 23 245-5 43-7 81-4 84 13 14 25-13 31-72 4-36 11-65 15-65s13 13 20 30c14 33 77 95 108 104 16 5 22 19 27 59 16 132-55 262-154 281-30 5-33 4-28-14 9-35-28-24-38 12-6 17-21 40-35 50-34 24-107 32-145 15zm63-475c4-28-33-111-53-118-24-9-30 3-12 23 8 10 18 30 21 46 3 15 8 39 11 53 7 30 29 27 33-4zm88-27c8-47-42-152-90-189-48-36-57-14-14 32 57 61 68 82 68 139 0 40 4 53 15 53 8 0 17-14 21-35zm1051-240c2-6-27-16-64-23-38-7-80-21-95-32s-30-20-33-20-28-16-56-35-85-52-127-73c-68-33-84-37-153-37-49 0-82 5-92 14-27 22-11 29 40 19 97-18 168 4 308 96 39 26 90 56 115 68 70 34 149 46 157 23zm-1202-36c8-13-11-28-88-69-51-28-67-32-150-33-53-1-94 2-97 8s22 11 65 12c81 3 177 33 220 68 34 27 41 30 50 14zm-282-195c20-21-147-185-172-169-6 3 27 43 72 89 85 87 89 90 100 80zm57-42c0-5-15-39-34-78-19-38-37-87-41-109-10-50-12-55-30-49-7 3-12 15-10 26 7 37 38 122 52 146 37 63 44 72 53 72 6 0 10-4 10-8zm62-47c3-3-1-31-9-63-7-31-14-99-14-150-1-66-4-92-12-89-14 4-16 183-3 260 6 42 21 58 38 42zm1428-27c0-23-123-130-177-155-43-19-67-23-121-21-47 2-67 7-67 16s21 14 75 16c92 3 137 24 212 100 53 53 78 67 78 44zm452-40c28-29 61-75 73-103 27-58 51-175 42-199-13-33-24-14-30 48-8 89-51 179-115 241-28 28-52 53-52 58 0 22 37 1 82-45zm-1146-9c16-63 8-144-22-208-28-63-79-121-106-121s-22 12 17 43c64 51 80 96 80 225-1 119 11 142 31 61zm323-16c-20-54-62-119-107-165-26-27-50-48-54-48-18 0-5 25 41 77 27 31 60 80 73 109 15 35 29 54 40 54 15 0 16-4 7-27zm17-230c29-68 9-148-55-223-22-26-33-32-41-24-9 9-4 20 18 45 68 79 82 163 36 218-14 17-22 35-19 41 10 16 44-17 61-57zm-918-133c4 0 22-9 41-21 52-31 20-43-38-14-25 13-94 46-153 74-101 48-117 59-103 73 3 3 60-21 126-53 66-33 123-59 127-59zm1252 95c0-43-112-167-132-147-7 7 2 21 26 43 20 17 48 51 62 75 26 45 44 56 44 29zm350 6c0-50-57-95-113-89-44 4-36 22 12 29 46 6 71 24 71 50 0 11 7 19 15 19s15-4 15-9zm30-114c0-24-35-47-86-56-27-5-52-7-56-5-19 12-4 23 46 34 30 6 60 18 66 26 16 18 30 18 30 1zm40-63c0-9-23-25-54-40-45-20-67-24-123-22-51 2-69 7-71 18-2 13 11 16 75 15 62 0 86 5 118 22 49 26 55 27 55 7zm90-64c0-19-91-69-145-80-71-15-215 16-215 46 0 17-2 17 50-1 24-8 77-15 119-15 68 0 82 3 121 29 47 31 70 38 70 21zm-1477-176c3-4-21-36-55-73-72-78-156-189-205-271-19-33-42-60-49-60-20 0-18 8 23 75 56 91 134 195 203 269 62 65 71 72 83 60zm51-130c-69-77-130-156-187-239-22-33-41-62-43-64-1-1-8 0-14 4-7 4-4 18 11 43 74 123 266 349 282 333 7-7-10-33-49-77zm136 35c0-6-33-50-73-97-82-98-131-165-171-234-15-27-31-48-36-48-44 0 85 198 229 353 36 38 51 46 51 26zm-526-38c25-22 56-47 68-55 17-12 19-19 11-27-9-9-28 1-77 40-36 29-66 59-66 67 0 23 16 16 64-25zm627-14c0-4-33-49-73-99-78-97-140-177-191-245-27-38-57-57-57-35 0 4 33 50 73 103 172 230 250 316 248 276zm629 7c0-19-46-77-71-90-35-18-130-16-137 4-2 8 11 12 47 12 66 0 97 13 116 50 13 26 45 43 45 24zm-567-80c3-3-31-49-76-103-45-53-97-120-116-149-32-51-45-61-55-44-9 16 99 164 193 265 35 37 43 42 54 31zm-698-101c-6-39-27-65-41-51-7 8 17 111 30 127 9 12 12 10 14-9 2-13 1-43-3-67zm1477-321c40-21 104-45 142-53 78-16 101-39 39-39-76 1-284 95-267 121 7 13 6 13 86-29zm288-127c0-8-15-21-34-29s-55-33-80-56c-31-29-46-37-52-29-13 21 119 128 159 129 4 0 7-7 7-15zm-1080-115c-25-128-2-222 68-280 28-23 34-32 24-42-19-19-105 76-122 137-21 74-13 186 17 238 13 22 21-13 13-53zm173-392c-12-66-8-140 10-175 26-49 68-66 144-60 37 3 66 1 69-5 11-18-19-28-86-28-103 0-155 42-169 137-6 44 3 145 15 165 3 4 10 8 15 8 7 0 8-15 2-42z"/>
  <path d="m4450 3858c-82-45-240-151-307-206-45-36-56-57-24-47 23 7 80-15 100-38 9-11 28-17 55-16 36 0 44 5 71 42 41 56 86 80 151 81 49 1 53 3 48 21-9 28-33 75-40 75-2 0-53-31-112-70-103-67-132-81-132-61 0 15 230 162 248 159 10-2 32-31 50-66 26-48 41-66 69-77 44-19 43-19 43 5 0 44-113 240-138 240-4 0-41-19-82-42z"/>
  <path d="m5258 3696-26-24 16-63c12-51 13-72 4-117-17-82-56-157-106-206-25-24-46-50-46-58 0-7 12-21 26-32 25-18 26-18 54 9 66 63 130 225 137 350 5 76-9 165-25 165-4 0-19-11-34-24z"/>
  <path d="m5155 3629c-16-10-34-20-40-22s-4-11 4-21c19-22 15-83-6-115-14-21-14-33-3-93l13-69 27 28c45 47 70 122 70 207 0 112-8 122-65 85z"/>
  <path d="m4066 3560c-55-17-116-98-116-155 0-30 32-65 59-65 18 0 19 2 5 28-18 35-18 56 1 92 26 51 75 64 121 33 24-16 26-15 52 11l27 27-24 20c-25 20-74 24-125 9z"/>
  <path d="m754 3360c-98-20-157-65-199-152-9-21-23-38-29-38-19 0-63-51-80-94-41-99 6-235 97-282 25-14 27-19 27-81 0-122 49-182 164-204 80-14 89-9 103 58 6 32 12 65 14 73 3 11-4 14-26 11-61-6-70-6-73 4-2 6 27 17 66 26 68 15 119 42 210 108 34 25 76 42 151 62 92 24 108 32 148 71 41 40 120 155 112 163-2 1-20 7-40 13-36 10-38 9-95-50-117-120-300-216-541-283-17-5-23-2-23 10 0 8 6 17 13 19 230 63 423 163 530 274l38 39-41 17-42 17-56-49c-64-55-115-89-200-132-106-53-297-111-321-96-18 12-4 23 36 31 112 20 272 84 368 148 130 85 151 118 86 132-26 5-38 1-73-26-77-62-186-118-306-158-110-37-167-47-176-33-8 13 25 32 56 32 68 0 296 100 399 176l51 37-23 18c-32 24-41 24-86-7-68-46-175-96-185-86-6 6 29 31 96 68 58 33 105 64 106 70 0 6-7 17-16 25-12 10-20 10-35 1-36-23-170-72-195-72-40 0-23 21 32 40 27 9 75 27 106 39 58 22 58 22 42 47-15 22-23 24-83 23-36-1-84-5-107-9z"/>
  <path d="m2203 3315c-3-9-4-17-2-19 79-55 121-81 202-121 92-46 116-65 82-65-28 0-147 59-232 116-78 52-86 55-101 40s-14-18 18-46c79-69 203-145 298-183 23-9 42-24 42-32 0-21-3-20-110 31-106 52-160 86-237 152l-53 44-27-17-27-18 85-81c92-87 206-152 342-197 37-12 66-27 64-33-6-16-41-8-142 31-123 49-210 104-299 190-50 48-81 71-91 67-8-4-15-8-15-11 0-32 251-257 348-313 57-33 70-49 46-57-28-9-285 194-372 293-35 40-54 54-74 54-42 0-36-26 24-115 69-102 164-184 313-271 11-6 15-15 11-22-9-15-71 18-170 92-101 76-198 188-225 259-8 21-17 27-40 27-36 0-61-9-61-22s77-126 109-161c14-16 53-43 85-60 68-36 145-108 169-158 9-19 32-47 52-62 19-15 35-34 35-42 0-19-14-19-30 0-19 23-34 18-46-17-6-18-14-41-19-50-6-16-1-18 36-18 100 0 204 48 284 129 21 23 47 41 56 41 23 0 76 45 94 81 8 15 15 44 15 64 0 36-31 110-49 117-5 2-3 26 5 60 33 127-32 208-166 208-26 0-48 8-67 24-42 35-125 86-140 86-8 0-16-7-20-15z"/>
  <path d="m170 3153c0-90 5-152 25-330l8-63h-85-85l8-44c12-66 63-172 92-191 14-9 42-19 62-22l38-6-58 77c-47 62-56 79-45 89 10 9 13 9 17 0 7-18 117-155 148-183l27-25-6 35c-3 19-19 68-35 107-20 49-26 75-19 79 6 4 17-1 23-10 14-19 78-211 78-233 0-8 15-25 32-39 33-25 115-58 123-49 3 3-4 29-15 58-42 103-45 97 40 97 40 0 76 2 79 5 6 6-100 125-156 175-86 77-216 204-216 212 0 23 35 1 91-57 34-35 65-62 70-60 4 3-3 24-16 48-25 45-75 207-75 242 0 12-12 32-26 46-15 13-35 43-46 66-17 38-50 73-70 73-5 0-8-44-8-97z"/>
  <path d="m2947 3116c-103-99-133-247-77-373 24-55 47-83 67-83 8 0 38 24 67 53 68 68 81 112 73 247-4 88-8 104-30 130-14 16-28 39-32 50-9 28-17 26-68-24z"/>
  <path d="m3730 3141c-121-18-168-99-124-211 28-70 49-47 49 53 0 63 2 71 29 94 23 19 38 24 68 21 36-3 38-2 38 24 0 16-3 27-7 27-5-1-28-5-53-8z"/>
  <path d="m1693 3083c-18-2-33-7-33-9 0-15 76-96 108-115 47-28 90-40 97-28 4 5 2 9-2 9-5 0-29 34-54 75-46 78-44 77-116 68z"/>
  <path d="m6831 3064c-15-15-37-24-64-26-28-2-41-8-43-19-1-9-5-26-9-38-6-21-4-22 51-19 65 3 90 26 101 91 6 42-2 45-36 11z"/>
  <path d="m1451 3037c-40-70-122-165-158-182-18-9-61-22-96-29-81-17-124-37-166-75-19-17-41-31-49-31-29 0-72-42-96-95-30-61-34-115-11-115 17 0 118 33 159 51 31 15 34 29 6 29-33 0-84 30-72 42 7 7 25 5 58-6 60-20 103-20 133 0 29 20 13 34-40 34-39 0-79 22-61 34 6 4 38 2 70-3 67-11 124-2 153 25 29 26 23 33-33 36-30 2-53 8-56 16-3 9 16 12 70 12 88 0 103 8 159 92 39 57 89 167 89 195 0 29-36 11-59-30z"/>
  <path d="m1557 3043c3-21 21-70 39-110l34-71 63-6c34-3 75-7 91-8 16-2 31-8 33-15 3-9-18-13-74-15l-78-3 66-68 75 7c47 4 74 3 74-3 0-16-36-31-74-31-42 0-46-13-12-35 18-12 44-16 92-14 71 3 101-15 47-26-58-13-60-15-33-35 36-28 150-70 188-70 29 0 35 5 49 37 50 121-72 255-292 318-78 23-135 63-186 131-36 46-46 54-75 54-32 0-33-1-27-37z"/>
  <path d="m360 3027c0-53 102-298 118-283 13 13 9 52-8 71-39 46-60 95-67 156-5 58-15 78-35 79-5 0-8-10-8-23z"/>
  <path d="m6787 2864c-17-15-41-24-60-24-26 0-37-7-51-31-23-39-11-54 43-54 46 0 75 23 91 71 18 54 10 67-23 38z"/>
  <path d="m1630 2742c0-89 36-289 72-397 44-133 84-201 163-280 78-77 152-115 228-115h43l-3 103c-2 56-3 109-3 118s-14 22-30 29c-43 18-122 109-157 183-17 34-38 95-48 135-9 39-21 72-25 72-15 0-136 102-187 158l-53 57v-63z"/>
  <path d="m3085 2761c-3-10-30-42-60-70-58-55-63-68-44-136 17-61 44-94 77-92 22 2 28-3 30-23 2-14 18-41 36-60 49-53 91-110 116-157 16-32 28-43 45-43 24 0 188 30 193 35 2 2-11 34-29 71-32 69-73 132-96 147-7 4-29 32-49 62-20 31-54 70-75 89-23 19-39 42-39 55 0 49-56 141-86 141-7 0-15-8-19-19z"/>
  <path d="m515 2730c-7-40-2-60 16-60 5 0 9 23 9 50 0 60-16 66-25 10z"/>
  <path d="m2509 2634c-14-14-50-42-79-62-48-34-55-44-79-112-35-99-72-161-137-229-53-54-54-56-54-115 0-34 3-85 6-113 8-62 15-64 92-28 92 42 176 148 235 295 34 84 67 239 67 316 0 83-9 91-51 48z"/>
  <path d="m6678 2624c-25-25-64-35-96-23-6 2-21-10-33-28l-20-32 30-15c16-9 41-16 54-16 49 0 103 69 95 119-3 21-4 21-30-5z"/>
  <path d="m1924 2525c19-97 112-252 175-288l31-18v136c0 100-3 136-12 139-21 5-161 52-182 61-17 8-18 5-12-30z"/>
  <path d="m1283 2440c5-72 3-79-11-71-31 16-176 52-287 71-61 11-190 22-293 26l-184 7 7-24c12-40 86-191 122-247 18-29 69-90 113-136l81-84-106-54-106-55 68-55c180-145 404-249 646-299 84-17 128-20 292-17 106 2 196 5 199 9 3 3 3 22-1 42-5 31-17 45-82 94l-76 58-150 7c-133 6-161 5-243-14-125-28-297-20-277 13 4 5 53 9 109 9 111 0 166 7 166 21 0 5-12 9-27 9-30 0-92 17-243 68-126 42-145 51-133 63 6 6 64-9 148-37 76-25 162-50 189-55 28-5 59-12 69-15 66-21-59 74-165 125-52 25-64 36-49 46 6 3 41-10 78-30 87-45 95-50 171-108 53-41 74-50 125-58 78-11 170-12 163-1-3 5-31 27-63 49-32 21-94 64-138 95-180 125-251 168-285 174-84 15-179 47-276 93-57 27-104 54-104 59 0 21 15 18 88-19 82-41 222-92 230-84 3 3 3 7 1 9-5 4-185 123-296 196-77 50-98 70-72 70 16 0 42-16 226-137 95-62 175-113 178-113 13 0 1 21-50 84-49 62-133 136-167 149-10 3-10 7-1 17 16 17 110-47 167-114 51-61 113-149 121-175 3-10 42-42 88-71 45-30 149-100 230-158 82-57 151-101 154-98s1 31-5 62c-11 53-17 61-138 181-95 94-123 128-115 136 9 9 33-10 98-76 47-48 89-85 92-82 8 8-62 147-125 246-58 93-61 99-41 99 17 0 83-102 153-237 32-62 61-110 65-107 4 2 8 43 8 91 1 87 9 112 31 98 14-8 7-130-12-217-7-37-6-58 6-95 8-27 18-69 21-94 7-45 11-49 91-108 70-51 88-60 104-51 10 5 28 10 39 10 27 0 32 11 21 51-5 19-12 50-15 69-19 124-131 385-206 483s-162 176-254 227c-37 21-139 59-159 60-5 0-6-36-3-80z"/>
  <path d="m2290 2500c-14-4-49-8-77-9l-53-1v-130c0-72 4-130 9-130 29 0 161 217 161 266 0 15-3 16-40 4z"/>
  <path d="m170 2465c0-15 59-54 90-60 19-3 43-8 53-11 30-9 18 15-20 40-35 22-123 44-123 31z"/>
  <path d="m2953 2394c-52-26-92-57-148-115-43-43-81-79-85-79-7 0-27 61-37 113-2 10-9 30-17 45l-15 27-58-60c-137-143-213-352-213-591 0-85 2-94 21-105 19-10 27-6 65 32 43 42 43 43 38 98-10 89 42 421 65 421 17 0 16-15-5-122-14-70-23-149-23-208v-95l36 40c61 68 154 193 312 419 41 58 81 106 88 106s13-3 13-6c0-7-90-142-140-209-16-22-37-51-47-65-31-45-146-194-185-241-37-44-47-69-29-69 49 0 285 93 366 144 63 41 85 47 85 28 0-9-111-81-160-104-98-45-194-77-291-97-45-9-64-20-98-55-42-42-42-44-28-72 8-16 12-35 10-42-11-31 209 14 351 72 172 69 300 173 379 307 55 95 55 96-60 104-133 10-134 10-117 82 7 32 16 120 20 196 5 113 4 137-7 137-8-1-46-17-86-36z"/>
  <path d="m6469 2404c-20-22-31-25-64-21-36 4-42 1-53-21-18-40-15-50 23-62 58-19 117 24 131 98 8 39-4 41-37 6z"/>
  <path d="m258 2333c45-96 82-152 149-224l34-35-83-13c-46-7-86-15-90-17-10-7 35-125 78-204 44-80 127-191 163-217 18-14 51-22 106-26 78-7 264-39 298-53 22-8 28 11 19 54-6 28-18 39-79 72-70 39-74 39-173 39-96 0-159 11-188 34-25 20 5 28 49 13 61-20 133-30 166-21l28 7-25 19c-14 10-35 19-46 19-38 0-161 69-199 111-51 56-31 72 24 19 41-39 121-88 121-73 0 4-9 16-20 28l-20 21 100 49c55 27 100 53 100 58s-30 41-66 81c-37 39-86 104-109 145-24 40-55 79-69 86-32 17-165 51-233 60l-53 7 18-39z"/>
  <path d="m5910 2255c-131-55-272-68-395-36l-70 19-43-25c-29-17-41-30-38-40 3-8 6-32 6-53 0-37 2-39 48-57 61-23 275-23 372 1 68 16 132 21 143 9 17-16-19-33-72-33-31 0-88-7-126-15-104-22-228-19-310 6-66 21-69 21-82 3-20-28-12-37 58-61 78-27 230-31 339-8 40 8 76 12 82 9 14-9-2-347-17-362-2-3-10-2-18 1-11 4-12 17-1 79 7 40 13 113 14 162v89l-42-6c-24-3-80-11-126-17-70-10-93-10-160 5-42 9-98 26-124 37-39 17-51 18-63 8-26-22-16-37 43-63 92-42 185-54 289-38 112 18 127 18 133 6 9-18-94-36-210-37-121 0-189 16-268 62-33 20-36 20-88 3-48-15-54-20-54-44 0-15-2-34-5-41-4-9 15-25 57-46 102-53 188-73 328-79 149-5 157-7 139-29-12-14-28-16-104-11-163 12-312 49-394 99-27 17-35 19-42 7-20-32-8-47 69-87 122-62 187-75 346-70 80 3 136 1 136-5 0-5-9-11-20-14-14-4-20-14-20-33 0-40 11-90 20-90 19 0 59 147 62 230l3 65-110-3c-85-3-132 1-208 18-120 26-187 53-187 76 0 12 5 14 18 8 9-4 55-21 102-37 80-28 94-30 249-30h164l-6-106c-4-78-12-125-31-177-14-39-26-75-26-79 0-5 15 9 33 30 22 25 38 36 46 31 9-6 6-15-12-35-38-39-87-135-87-168 0-17 9-38 20-48 27-24 41-11 81 74 76 161 126 377 142 620 1 19 8 37 16 39 12 4 13-15 7-114-13-214-62-403-148-573-62-123-65-151-8-88 40 43 125 217 145 296 27 105 56 300 60 401 3 52 7 134 10 183 6 84 6 87-15 87-30 0-271-30-292-36-9-3-52-5-95-6-88 0-166 23-145 44 9 9 18 9 37 0 31-14 184-15 240-2 22 5 91 14 154 20 123 10 131 14 131 68 0 38-6 39-80 7z"/>
  <path d="m5991 1823c-7-76-20-172-29-213s-17-82-18-90c-16-100-103-283-174-362-41-46-49-60-42-78 8-21 12-18 66 43 32 36 76 94 97 129 37 59 94 192 103 241 2 12 11 51 20 87 16 65 23 330 10 364-14 36-21 9-33-121z"/>
  <path d="m4968 1851c-83-111-193-151-327-120-34 8-46 7-52-3-15-24-3-33 67-51 73-19 130-18 206 5 81 24 179 149 160 206-6 20-16 14-54-37z"/>
  <path d="m2123 1883c-10-3-13-52-13-194 0-104-2-189-5-189-2 0-40 25-82 55-43 30-85 55-95 55-29 0-65-18-72-35-13-36 8-66 95-135 141-113 134-91 134-442 0-164-1-298-3-298-1 0-24 15-50 33-26 17-58 38-70 44-12 7-30 18-40 24-50 31-115-39-95-102 8-27 130-135 231-205l52-37v-143-142l45-10c25-5 59-7 77-3l33 7 12 238 110 106c103 98 110 107 101 132-5 15-23 33-44 43-33 15-37 15-104-9l-70-26v63c0 84-9 257-19 402-9 115-8 122 14 166 23 47 58 96 133 188 23 29 42 60 42 70 0 23-28 61-45 61-7 0-46-22-87-49l-73-49-8 180c-4 106-12 187-18 195-11 13-61 17-86 6z"/>
  <path d="m6070 1818c0-166-58-412-127-536-42-76-107-163-167-222-36-35-56-62-56-78v-23l31 18c83 47 191 174 246 288 38 78 88 240 97 317 4 26 11 80 16 120 16 124 14 153-15 172l-25 16v-72z"/>
  <path d="m6146 1798c-3-13-6-52-6-86 0-115-49-314-110-448-59-131-171-260-276-319-45-25-92-80-80-92 9-9 134 38 192 73 196 116 291 321 334 721 12 111 12 112-11 142-29 36-35 38-43 9z"/>
  <path d="m6233 1664c3-5-1-47-9-94s-16-103-19-125c-5-42-26-119-52-195-59-170-168-301-306-368-45-22-118-49-162-61-105-27-155-44-155-53 0-13 61-20 113-13 242 31 433 177 537 409 55 123 82 238 82 354 0 121-3 144-22 150-7 3-10 1-7-4z"/>
  <path d="m3175 1623c-86-35-226-131-379-261-46-39-52-41-61-26-5 10-27 36-48 58l-37 41-36-40c-130-147-204-351-204-567 0-85 2-99 18-104 9-3 30-13 46-21 17-9 31-12 35-6 3 5 23 30 44 55 34 41 37 50 37 107 0 48-6 74-30 120-16 33-31 69-34 82-2 13-7 40-11 60-4 23-3 39 4 43 6 4 13 1 15-6s14-46 26-86c11-40 25-70 31-67 5 4 7 10 4 15-3 4 2 75 10 156 8 82 15 155 15 162 0 6 7 12 16 12 14 0 16-7 10-42-9-59-19-318-13-318 10 0 47 124 51 170 3 42 18 62 30 42 16-27-44-238-73-256-14-9-15-89 0-84 6 2 52 59 103 127 84 110 94 129 100 177 6 53 62 241 77 258 4 4 12 5 18 2 7-5 2-29-13-74-31-89-50-161-44-168 6-6 49 53 171 234 50 72 94 132 98 132 28 0-20-79-207-345-20-27-31-51-27-52 19-7 104 50 143 94 29 33 44 43 51 36 8-8-1-25-32-58-51-56-105-91-172-115-29-10-57-29-70-47-69-95-143-191-165-215l-26-28h36c71 0 93 10 121 55 29 45 99 115 135 134s36-7 0-37c-48-40-107-105-102-113 9-16 292 124 310 153 8 13 34 9 34-5 0-15-180-124-252-153-96-38-35-46 101-14 113 27 130 11 26-26-37-13-85-18-185-19-74-1-162-5-196-9-57-8-63-11-105-62-24-30-47-54-51-54s-2-11 4-25c11-24 15-25 100-25 199 0 383 78 519 221 68 71 129 176 129 222 0 22-7 26-65 41-35 9-73 16-85 16-11 0-20 2-20 5s15 38 34 77c68 145 106 280 106 377 0 68-2 69-65 44z"/>
  <path d="m968 1556 4-54-78 19c-124 30-488 68-497 52-7-11 83-160 151-252 31-42 97-118 148-169l91-93-35-14c-19-8-43-15-53-15-33 0-21-27 43-96 176-188 418-274 768-274 135 0 266 10 275 23 1 1 5 25 8 54l6 52-37 12c-20 6-59 22-86 35-46 22-55 23-195 17-115-5-151-10-171-23-72-50-204-90-250-75-32 10-14 21 55 33 70 12 159 48 151 61-3 5-59 12-123 15-114 7-229 21-267 32-11 4-15 9-9 15s50 6 119-1c60-6 145-15 189-20 44-4 82-6 85-3 16 15-136 74-227 88-23 4-47 13-54 21-9 12-6 14 22 14 79-1 269-68 315-111 19-17 33-19 118-17 57 2 95 7 95 13-1 6-81 51-178 101-164 85-181 91-253 98-42 4-103 16-135 27-89 30-243 110-243 125 0 20 6 18 92-26 92-48 143-68 221-85 63-14 82-6 39 16-15 7-38 21-52 30s-97 62-186 117c-88 56-168 110-178 121-26 28-2 37 32 11 37-30 246-164 355-228 55-33 87-47 87-38 0 26-85 142-156 213-40 40-69 75-63 78 31 20 195-162 248-276 20-41 41-68 63-82 74-45 380-197 388-192 7 4-42 163-52 169-2 2-23 14-48 28-78 45-304 301-283 322 13 13 24 4 69-61 83-120 234-262 234-221 0 20-91 194-142 273l-45 70-84 19c-102 24-187 54-261 92-14 8-28 14-30 14-3 0-3-24 0-54z"/>
  <path d="m5526 1562c-5-9-2-38 14-107 15-63 12-117-10-188-28-89-85-152-190-206-71-37-79-44-70-61 13-24 13-40 0-40-5 0-19 18-30 40s-24 40-28 40c-12 0-39-51-47-87-14-68 38-103 157-103 82 0 129 18 161 61 20 28 36 119 21 119-5 0-26-11-46-25-41-28-117-57-130-49-17 11-6 20 52 42 157 61 243 220 227 420-10 114-23 152-52 152-13 0-26-4-29-8z"/>
  <path d="m1400 1465c0-6 13-31 28-56 16-24 53-92 83-151 30-60 57-108 60-108 4 0 12 36 18 79 13 85 5 207-13 219-21 14-176 29-176 17z"/>
  <path d="m1629 1405c0-6 0-46 1-90 0-49-6-103-17-140-20-72-20-120 1-160 9-16 16-37 16-45s7-33 14-55c13-37 20-42 95-73 77-30 83-31 111-17 16 8 37 15 46 15 15 0 16 8 11 68-7 88-54 224-105 309-39 65-171 208-173 188z"/>
  <path d="m5613 1199c-10-25-9-37 2-59 44-85 35-203-20-275-36-49-24-57 21-14 89 84 113 278 45 350-16 16-30 29-32 29-3 0-10-14-16-31z"/>
  <path d="m3100 533c-35-44-76-164-80-238-7-135-10-126 43-157 33-19 49-24 52-15 2 6 11 53 19 102 15 83 49 195 74 242 8 15 3 26-29 61-22 23-41 42-44 42-2 0-18-17-35-37z"/>
  <path d="m4051 491c-44-44-79-128-83-198l-3-47 40-8c21-5 44-6 51-4 7 3 15 29 19 58s16 80 27 113c19 59 18 125-2 125-6 0-27-17-49-39z"/>
  <path d="m3217 407c-31-74-65-216-66-273-1-39 1-41 38-52 21-7 55-12 75-12h36v73c0 39 7 104 16 142 29 128 30 119-13 146-21 13-43 27-49 31-7 5-20-15-37-55z"/>
  <path d="m4144 439c-10-17-44-155-44-181 0-29 4-31 82-42l36-4 11 66c6 37 14 79 17 94 5 24 0 29-46 51-28 13-53 21-56 16z"/>
  <path d="m4275 379c-12-36-21-160-13-165 5-3 32-8 61-11l53-5 17 92c10 51 17 93 15 95-2 1-31 5-65 8-55 4-63 3-68-14z"/>
  <path d="m4642 392c-14-9-63-178-54-186 3-3 14-4 26-1 12 2 42 7 67 10l46 6 11 77c7 42 12 83 12 90 0 14-87 17-108 4z"/>
  <path d="m4431 340c-6-28-11-71-11-95v-45h65c44 0 67 4 69 13 2 6 11 41 19 77s18 73 22 83c6 15-1 17-73 17h-80l-11-50z"/>
  <path d="m3366 372c-9-16-36-208-36-262v-50h73 72v143 144l-35 12c-19 6-42 14-51 17s-19 1-23-4z"/>
  <path d="m3688 333-38-16v-62c0-107 10-155 32-155 25 0 68 23 91 48 17 19 17 23 0 111-20 100-21 100-85 74z"/>
  <path d="m3510 201v-131h38c83 0 81-2 79 131l-2 119h-35c-19 0-45 3-57 6-23 6-23 6-23-125z"/>
 </g>
</svg>
